Patient4_TMGait_0pt7_01_left_20_EMG.mot
version=1
nRows=23
nColumns=33
inDegrees=no
endheader
time	1LAddLong	2LGlutMax	3LGlutMed	4LIliopsoas	5LSemiMemb	6LBicFemLong	7LRecFem	8LVastMed	9LVastLat	10LGasMed	11LTibAnt	12lTibPost	13LPeroneusLong	14LSol	15LExtDigLong	16LFlexDigLong	17RAddLong	18RGlutMax	19RGlutMed	20RIliopsoas	21RSemiMemb	22RBicFemLong	23RRecFem	24RVastMed	25RVastLat	26RGasMed	27RTibAnt	28RTibPost	29RPeroneusLong	30RSol	31RExtDigLong	32RFlexDigLong
22.96	0.006561	-0.011139	-0.098724	0.008392	-0.003357	-0.022736	0.075684	0.018463	-0.32028	-0.049744	0.14496	0.007019	0.029449	0.025482	0.050812	-0.016327	0.018616	-0.19836	-0.039368	0.026855	-0.14175	-0.058594	0.020447	0.11597	-0.016022	-0.011597	-0.094604	-0.007172	-0.634	0.24567	0.011139	-0.008087
22.961	0.003357	0.058594	-0.050812	0.003815	-0.002289	-0.028687	0.075836	0.007935	-0.35263	-0.045624	0.11887	0.002899	0.038452	0.095062	0.030212	-0.032043	0.002136	-0.17792	0.074921	-0.096741	-0.25955	-0.027618	-0.28931	0.07309	-0.12192	-0.008545	-0.1088	-0.006256	0.42526	0.19211	-0.003662	-0.005951
22.962	-0.004883	0.13397	0.012665	0.016479	0.005188	-0.023956	0.068359	0.002747	-0.39734	-0.009613	-0.17303	0.007324	0.046997	0.086823	0.089111	-0.031128	-0.015106	-0.23941	0.21698	-0.14603	-0.25543	0.006561	-0.50308	0.54916	-0.075073	-0.010376	-0.02243	-0.005493	0.87112	0.25314	-0.002747	-0.000305
22.963	-0.009155	0.17593	0.049744	0.020599	-0.009003	-0.024567	0.059967	0.011597	-0.44846	0.008087	-0.15778	0.00061	0.056763	-0.081787	0.42496	-0.030212	-0.025482	-0.21576	0.78552	-0.10651	0.068054	0.018311	-0.47577	0.6247	0.051422	-0.010376	0.10101	-0.007935	0.50507	0.21851	0	-0.007019
22.964	-0.002441	0.1976	0.039825	0.013733	-0.007324	-0.08606	0.080719	0.001526	-0.45609	0.04776	-0.095825	0.013885	0.05249	-0.19363	-0.12177	-0.036011	-0.005798	-0.22659	0.020447	0.054626	0.22797	-0.064392	-0.2742	0.46539	0.24475	-0.010834	0.1236	-0.004272	0.17792	0.13992	-0.005951	-0.007782
22.965	0.008087	0.23392	-0.014648	0.013885	-0.041199	-0.11185	0.074615	0.008392	-0.44006	0.065308	-0.029297	0.012817	0.054016	-0.09613	-0.3421	-0.031281	0.013885	-0.2385	0.089264	0.12207	0.075226	-0.076904	0.058136	-0.068665	0.14206	-0.011292	0.31708	0.002289	-0.96558	0.034332	-0.005798	-0.005341
22.966	0.002289	0.25482	-0.045471	0.008087	-0.018311	-0.12543	0.054779	0.001678	-0.39261	0.037231	0.004578	-0.007477	0.043793	-0.059967	-0.29572	-0.022888	0.028687	-0.16235	0.24857	0.050354	-0.019226	-0.10193	0.1503	-0.63553	0.10696	-0.007019	0.22522	-0.002289	-1.4807	-0.023651	-0.002747	0.000763
22.967	-0.000458	0.29205	-0.078278	0.003967	-0.005493	-0.090485	0.04303	0.003662	-0.33936	0.005035	-0.00473	0.007172	0.030518	-0.052338	-0.011139	-0.025482	0.038147	-0.20767	0.63782	0.019531	-0.060272	-0.11292	0.077209	-0.96954	0.10513	0.001984	-0.21652	0.00824	-0.8577	-0.064392	-0.004578	0.000763
22.968	0.013428	0.31815	-0.079041	-0.013885	-0.003815	-0.079346	0.022125	0.012817	-0.27664	-0.056458	0.029602	0.004883	0.068817	0.087585	0.087738	-0.019226	0.018158	-0.25284	0.48569	0.017395	-0.094604	-0.089722	0.024261	-0.58685	0.20065	0.006409	-0.093384	-0.001068	0.13947	-0.06073	0.000916	0.002747
22.969	0.018921	0.31937	-0.051575	-0.017548	0.000305	-0.052643	0.027008	-0.001984	-0.21866	-0.046234	0.05722	-0.000153	0.090027	0.1738	0.11368	-0.015411	0.000763	-0.27924	0.077057	0.046844	-0.044556	-0.044556	-0.041351	-0.1886	0.43518	0.008698	0.01236	0.001984	0.58548	-0.049438	-0.002594	0.011902
22.97	0.012054	0.29907	-0.057526	-0.00946	-0.005798	-0.037384	0.004883	0.003967	-0.13886	-0.065155	-0.006104	0.008545	0.090485	0.15015	0.010986	-0.004272	-0.015564	-0.22873	0.009766	0.031433	0.091248	-0.012512	-0.028381	0.077362	0.76645	0.007324	0.023499	-0.005646	0.9932	-0.014648	-0.004883	0.001221
22.971	0.006256	0.21759	-0.10529	-0.032501	-0.004272	-0.059662	-0.000305	0.008545	-0.079498	-0.121	-0.066376	0.01297	0.080566	0.089874	-0.13077	-0.009918	-0.016785	-0.21439	0.24002	-0.039673	0.04303	0.075989	0.089722	0.10422	0.59067	-0.013123	0.25803	-0.002136	0.84152	0.039215	-0.001984	-0.007477
22.972	0.006409	0.2124	-0.10742	-0.021515	0.001678	-0.048523	-0.010834	0.02121	-0.019989	-0.081482	-0.10727	0.011444	0.086823	0.046082	0.20783	-0.011139	-0.027618	-0.18601	0.35446	-0.068817	-0.00885	0.061951	0.19867	0.097809	0.36758	-0.026093	0.38498	-0.001068	0.2002	0.045471	-0.002289	-0.008698
22.973	0.009766	0.23224	-0.065155	-0.016327	-0.023651	-0.050812	-0.036926	0.007172	0.032501	-0.053864	-0.11749	0.019836	0.074463	-0.18158	0.2684	-0.009155	-0.015259	-0.10574	0.30716	-0.14252	0.001373	0.011292	0.23666	0.079956	0.19241	-0.016479	0.11566	-0.000458	0.091248	0.004425	-0.005646	-0.009918
22.974	0.000916	0.20096	-0.050812	0.009918	-0.008545	-0.025635	-0.003967	0.019836	0.061798	-0.060272	-0.028076	-0.000458	0.0737	-0.289	-0.20767	0.003662	-0.018005	-0.12726	0.21393	-0.080109	-0.023041	-0.026855	0.22492	0.065918	0.076447	-0.018311	-0.22842	0.002747	0.066376	0.085144	-0.001678	-0.017853
22.975	-0.001068	0.19302	-0.054474	-0.015717	-0.018158	-0.005798	-0.031738	0.008087	0.09964	-0.034485	0.008087	0.008392	0.045319	-0.18082	-0.12695	-0.001373	-0.006866	-0.21561	-0.098114	-0.10712	-0.018158	0.010223	0.39917	0.24185	-0.38437	-0.009613	-0.33829	-0.005798	0.19562	0.041351	-0.001526	-0.013123
22.976	-0.00885	0.19577	-0.13748	0.002136	-0.018005	0.007629	-0.025482	0.001984	0.13245	-0.01236	0.036316	0.001984	0.009003	-0.13397	-0.27802	-0.00946	0.001373	-0.15182	-0.039215	-0.010986	-0.14374	-0.001831	0.54932	0.067596	-0.71106	-0.003662	-0.29602	-0.00061	0.22766	0.018311	-0.008392	-0.011749
22.977	-0.004883	0.20096	-0.12833	0.022736	0.011597	0.000916	-0.034637	0.013123	0.15656	0.041656	0.041351	-0.001678	-0.021057	-0.13931	-0.24658	-0.002441	-0.018921	-0.16617	0.62363	0.050049	-0.12756	-0.008698	0.54336	0.10284	-0.53986	-0.006561	-0.32394	-0.001068	0.0914	0.002441	-0.002289	-0.019226
22.978	-0.000305	0.23193	-0.010986	0.010986	-0.001678	0.022125	-0.015106	0.018311	0.19608	0.045471	0.002136	0.010071	0.007935	-0.20432	-0.17548	-0.009308	-0.015717	-0.13046	0.56076	0.12344	-0.073853	-0.028687	0.6189	0.15182	-0.15717	-0.01709	-0.071259	-0.002289	-0.080872	-0.026703	-0.00061	-0.013123
22.979	0.001068	0.23148	-0.005798	-0.009155	-0.018005	0.009003	-0.010986	0.01358	0.23117	0.031281	-0.071411	0.009003	0.061951	-0.13123	-0.036469	-0.007172	-0.0177	0.010834	0.36118	0.19073	0.073853	-0.045471	0.36362	0.15274	0.008545	-0.009918	-0.001526	-0.001984	-0.058289	-0.049286	-0.001068	-0.009766
22.98	0.002747	0.19898	-0.034637	0.007172	-0.052795	-0.002747	-0.036621	0.009766	0.25436	0.020905	-0.057831	0.00885	0.10346	0.11948	0.039825	-0.016022	-0.024109	0.041809	-0.020294	0.13809	0.096436	-0.061646	0.23254	0.001831	-0.02243	-0.008392	0.019379	-0.003357	-0.45197	-0.12238	-0.003967	-0.000916
22.981	0.005646	0.23438	-0.02533	0.0177	-0.092316	0.010071	-0.024872	0.001221	0.26337	-0.00351	-0.053406	0.007477	0.12619	0.11581	0.09491	0.003357	-0.026093	0.057678	-0.17059	0.066223	0.042725	-0.042114	0.050659	-0.42007	-0.077667	-0.012054	0.0383	-0.000763	-0.55542	-0.16403	0	-0.006714
22.982	0.00061	0.21622	-0.047607	0.022583	-0.01709	-0.010376	-0.013885	0.010986	0.26703	-0.023346	-0.064697	0.005798	0.11917	-0.054626	0.29541	0.005951	-0.028992	0.1294	-0.18539	0.080566	0.005951	-0.002899	-0.11353	-0.55084	-0.030212	-0.006409	0.19745	-0.002899	-0.36819	-0.13062	-0.009155	-0.001068
